<?xml version="1.0" standalone="no"?>
<!DOCTYPE svg PUBLIC "-//W3C//DTD SVG 1.1//EN" "http://www.w3.org/Graphics/SVG/1.1/DTD/svg11.dtd" >
<svg xmlns="http://www.w3.org/2000/svg">
<metadata></metadata>
<defs>
<font id="supermarketregular" horiz-adv-x="0" >
<font-face units-per-em="2048" ascent="1638" descent="-410" />
<missing-glyph horiz-adv-x="639" />
<glyph unicode="&#x2018;&#x2018;" horiz-adv-x="720" d="M72 1040q-2 58 14 104t40.5 80.5t55 58t58.5 39.5t49 23.5t27 9.5q11 2 17 -1t9 -8q5 -6 6 -16q5 -21 -6 -34q-4 -6 -11 -10q-46 -23 -73 -44.5t-41 -38.5t-18 -28.5t-4 -13.5q25 0 48 -10t39.5 -26t26.5 -38.5t10 -46.5q0 -25 -10 -47t-26.5 -38.5t-39.5 -26t-48 -9.5 t-47.5 9.5t-38.5 26t-26 38.5t-11 47zM362 1040q-3 58 13 104t41 80.5t55.5 58t58 39.5t48.5 23.5t28 9.5q10 2 16 -1t10 -8q4 -6 5 -16q5 -21 -5 -34q-5 -6 -12 -10q-46 -23 -73 -44.5t-40.5 -38.5t-17.5 -28.5t-4 -13.5q25 0 47.5 -10t39.5 -26t26.5 -38.5t9.5 -46.5 q0 -25 -9.5 -47t-26.5 -38.5t-39.5 -26t-47.5 -9.5q-26 0 -48 9.5t-38.5 26t-26 38.5t-10.5 47z" />
<glyph unicode="&#x2019;&#x2019;" horiz-adv-x="759" d="M103 982q2 8 7 14q4 5 11 10q46 22 73 43.5t41 38.5t18 29t4 14q-26 0 -48.5 9.5t-39 26t-26.5 38.5t-10 47t10 47t26.5 38.5t39 26t48.5 9.5q24 0 47 -9.5t39 -26t26 -38.5t11 -47q1 -59 -14.5 -104.5t-40 -80t-55 -58.5t-58.5 -39.5t-49 -23t-27 -9.5q-11 -4 -17 -0.5 t-9 9.5q-5 5 -6 16q-3 12 -1 20zM392 982q2 8 7 14q4 5 11 10q47 22 74 43.5t40.5 38.5t17.5 29t4 14q-26 0 -48 9.5t-39 26t-26.5 38.5t-9.5 47t9.5 47t26.5 38.5t39 26t48 9.5q25 0 47.5 -9.5t39 -26t26 -38.5t10.5 -47q2 -59 -13.5 -104.5t-40.5 -80t-55.5 -58.5 t-58.5 -39.5t-48.5 -23t-27.5 -9.5q-10 -4 -16.5 -0.5t-9.5 9.5q-5 5 -6 16q-3 12 -1 20z" />
<glyph />
<glyph unicode="&#xd;" horiz-adv-x="654" />
<glyph unicode=" "  horiz-adv-x="639" />
<glyph unicode="&#x09;" horiz-adv-x="639" />
<glyph unicode="&#xa0;" horiz-adv-x="639" />
<glyph unicode="!" horiz-adv-x="569" d="M150 1425h279l-63 -1425h-152zM153 -232q0 58 38 96q40 40 97 40q53 0 95 -40q40 -39 40 -96q0 -58 -39 -98t-96 -40t-97 40q-38 40 -38 98z" />
<glyph unicode="&#x22;" horiz-adv-x="649" d="M112 1357h181l-26 -448h-128zM354 1357h180l-26 -448h-127z" />
<glyph unicode="#" horiz-adv-x="1248" d="M98 401v170h206l56 235h-197v168h254l71 240h191l-71 -240h202l71 240h191l-71 -240h150v-169l-205 1l-57 -235h198v-170h-254l-71 -241h-191l71 241h-202l-72 -241h-191l72 241h-151zM495 571h203l57 235h-204z" />
<glyph unicode="$" horiz-adv-x="1123" d="M95 157l120 118q34 -33 97 -66t142 -49v477q-56 26 -108 60t-91.5 83t-64 117t-24.5 163q0 79 23 139.5t63 103t92.5 68.5t109.5 38v193h181v-187q60 -8 108.5 -24.5t83.5 -33.5q41 -20 74 -43l92 -63l-100 -152l-76 50q-38 26 -88 46t-94 32v-460q64 -29 128 -62.5 t115 -80.5t82.5 -112.5t31.5 -158.5v-11q0 -84 -27.5 -148t-75.5 -108t-113 -69.5t-141 -33.5v-188h-181v190q-95 13 -162 41t-111 58q-52 34 -86 73zM349 1060q0 -68 29 -113.5t76 -82.5v351q-47 -23 -76 -63t-29 -92zM635 156q81 17 126.5 66.5t45.5 119.5q0 42 -13 75 t-36.5 58.5t-55 45.5t-67.5 37v-402z" />
<glyph unicode="%" horiz-adv-x="1427" d="M138 1002q0 44 16.5 82.5t45 67.5t67 46t82.5 17t82.5 -17t67.5 -46t46 -67.5t17 -82.5t-17 -82.5t-46 -67t-67.5 -45t-82.5 -16.5t-82.5 16.5t-67 45t-45 67t-16.5 82.5zM279 1002q0 -29 20.5 -49.5t49.5 -20.5q30 0 50.5 20.5t20.5 49.5q0 31 -20.5 50.5t-50.5 19.5 q-29 0 -49.5 -19.5t-20.5 -50.5zM316 -210l599 1713h181l-600 -1713h-180zM851 290q0 44 16.5 82.5t45 67.5t67 45.5t82.5 16.5t82.5 -16.5t67.5 -45.5t45.5 -67.5t16.5 -82.5t-16.5 -82t-45.5 -67t-67.5 -45.5t-82.5 -16.5t-82.5 16.5t-67 45.5t-45 67t-16.5 82zM992 290 q0 -29 20.5 -49.5t49.5 -20.5q30 0 50.5 20.5t20.5 49.5q0 30 -20.5 50t-50.5 20q-29 0 -49.5 -20t-20.5 -50z" />
<glyph unicode="&#x26;" horiz-adv-x="1413" d="M92 331v18q0 32 4.5 62t15.5 58q12 37 30 70.5t41 63.5q23 31 50 60t57 55q31 28 63.5 54.5t62.5 50.5q-28 29 -52.5 58.5t-43.5 62.5q-19 29 -30.5 63.5t-14.5 70.5q-5 58 15 113q20 58 54 99q19 22 41 40t46 31t52.5 21t57.5 10q30 2 58.5 -1.5t54.5 -13.5 q26 -9 49.5 -23.5t42.5 -30.5q18 -17 35 -39t28 -46q25 -50 29 -103q6 -57 -7 -106q-8 -23 -17 -46t-24 -42q-26 -44 -62 -78q-19 -19 -39 -38t-39 -36l288 -327l148 171l133 -100l-169 -194q71 -81 147.5 -170t147.5 -170h-206l-198 224q-23 -24 -50 -48t-53 -46 q-26 -23 -53 -41.5t-54 -36.5q-27 -17 -55.5 -30.5t-58.5 -26.5q-29 -11 -58.5 -17t-60.5 -9q-9 -1 -19 -1.5t-19 -0.5q-53 0 -109 19q-35 13 -67 30.5t-59 40.5q-27 24 -50.5 52.5t-38.5 61.5q-34 65 -43 143q-1 9 -1 18zM261 336q10 -91 72 -155q64 -60 151 -53 q43 4 87 23t86 49q40 32 86 71t84 77l-302 342l-38 -30l-52 -41q-45 -35 -88 -81q-19 -22 -36 -45.5t-30 -47.5q-13 -26 -17.5 -53t-2.5 -56zM445 1084q2 -21 12 -43.5t24 -42.5q13 -19 28 -39t35 -41q22 21 45 43.5t45 45.5q42 45 37 113v1q-5 47 -39 80q-35 31 -82 28 q-44 -6 -77 -47q-33 -42 -28 -98z" />
<glyph unicode="'" horiz-adv-x="343" d="M78 1357h181l-26 -448h-128z" />
<glyph unicode="(" horiz-adv-x="753" d="M140 131v1128q0 109 45.5 191.5t120.5 138.5t171 85t198 31v-169q-61 0 -124 -16.5t-114 -50.5t-83.5 -86.5t-32.5 -123.5v-1128q0 -71 32.5 -128.5t84 -98t114.5 -62.5t123 -22v-169q-104 0 -201 35t-171 97.5t-118.5 151t-44.5 196.5z" />
<glyph unicode=")" horiz-adv-x="800" d="M114 -180q60 0 122.5 22t114 62.5t84.5 98t33 128.5v1128q0 71 -33 123.5t-83.5 86.5t-113.5 50.5t-124 16.5v169q102 -2 198 -31t171 -85t120.5 -138.5t45.5 -191.5v-1128q0 -108 -45 -196.5t-119 -151t-170.5 -97.5t-200.5 -35v169z" />
<glyph unicode="*" horiz-adv-x="812" d="M97 1137v137h144l-102 100l97 97l101 -100v142h136v-142l101 100l97 -97l-100 -100h142v-137h-142l100 -101l-97 -97l-101 102v-144h-136v144l-101 -102l-97 97l102 101h-144z" />
<glyph unicode="+" horiz-adv-x="1351" d="M197 520v181h405v405h181v-405h406v-181h-406v-406h-181v406h-405z" />
<glyph unicode="," horiz-adv-x="403" d="M56 -302l121 453h163l-121 -453h-163z" />
<glyph unicode="-" horiz-adv-x="936" d="M76 531v170h762v-170h-762z" />
<glyph unicode="." horiz-adv-x="492" d="M128 122q0 25 9.5 47t26 39t38.5 26.5t48 9.5q25 0 47 -9.5t39 -26.5t26.5 -39t9.5 -47q0 -26 -9.5 -48t-26.5 -38.5t-39 -26t-47 -9.5q-26 0 -48 9.5t-38.5 26t-26 38.5t-9.5 48z" />
<glyph unicode="/" horiz-adv-x="1136" d="M102 -394l731 2089h181l-732 -2089h-180z" />
<glyph unicode="0" horiz-adv-x="1127" d="M92 418v571q10 122 64 217q23 40 57 79t84 70.5t116 50t153 18.5q86 0 152 -18.5t116 -50t85 -70.5t57 -79q55 -95 65 -217v-571q-10 -123 -65 -218q-22 -41 -57 -80t-85 -69.5t-116 -49t-152 -18.5q-87 0 -153 18.5t-116 49t-84 69.5t-57 80q-54 95 -64 218zM272 418 q0 -50 12.5 -88t33.5 -66t47.5 -47t53.5 -32q65 -29 147 -32q83 3 147 32q27 13 53.5 32t47.5 47t33.5 66t12.5 88v571q0 47 -12.5 83.5t-33.5 63.5t-47.5 45t-53.5 30q-64 29 -147 32q-82 -3 -147 -32q-27 -12 -53.5 -30t-47.5 -45t-33.5 -63.5t-12.5 -83.5v-571z" />
<glyph unicode="1" horiz-adv-x="692" d="M99 942v181q7 0 31.5 1t57 9.5t69.5 25.5t67.5 49.5t50 81.5t19.5 121h181v-1411h-181v1032q-52 -38 -123.5 -62t-171.5 -28z" />
<glyph unicode="2" horiz-adv-x="1035" d="M98 0v170q177 179 314 342q59 69 115.5 142t101 140t72 126t27.5 99q0 47 -17.5 87.5t-48 71t-71.5 48t-87 17.5t-87 -17.5t-71.5 -48t-48 -71t-17.5 -87.5h-182q0 84 32 158t86.5 129t128.5 86.5t158 31.5q85 0 158 -31.5t128.5 -86.5t87.5 -129t32 -158q0 -62 -18 -119 t-49 -106q-106 -147 -201 -272q-41 -53 -82 -107.5t-78.5 -102.5t-68.5 -85t-52 -57h549v-170h-811z" />
<glyph unicode="3" horiz-adv-x="1061" d="M129 389h182q0 -47 17.5 -87.5t48 -71t71 -48t86.5 -17.5q47 0 87.5 17.5t71 48t48 71t17.5 87.5q0 45 -17 84.5t-47 69.5t-71 48t-89 21v182q47 0 87.5 17.5t71 48t48 71.5t17.5 87t-17.5 87t-48 71.5t-71 48t-87.5 17.5q-46 0 -86.5 -17.5t-71 -48t-48 -71.5t-17.5 -87 h-182q0 84 31.5 158t86.5 128.5t129 87t157 32.5q85 0 158.5 -32.5t129 -87t87 -128.5t31.5 -158q0 -96 -40 -177.5t-109 -137.5q69 -56 109.5 -137t40.5 -177q0 -84 -32 -158t-87 -129.5t-129 -87t-158 -31.5q-83 0 -157 31.5t-129.5 87t-87 129.5t-31.5 158z" />
<glyph unicode="4" horiz-adv-x="1177" d="M46 179v169l686 1064h180v-1064h165v-169h-165v-179h-181v179h-685zM264 348h468v732z" />
<glyph unicode="5" horiz-adv-x="1117" d="M107 550v864h848v-181h-667v-364q52 37 124 61t170 24q86 0 152 -19t115.5 -50t85 -70t57.5 -79q54 -95 65 -217v-100q-11 -123 -65 -218q-22 -41 -57.5 -80.5t-85 -70t-115.5 -49t-152 -18.5q-118 0 -198 33.5t-132.5 83t-82 107t-42.5 106.5h183q26 -56 71 -86t90 -44 q53 -16 111 -18q82 3 147 32q27 11 53.5 29.5t47.5 45t33.5 63.5t12.5 84v100q0 49 -12.5 87t-33.5 66.5t-47.5 47.5t-53.5 31q-65 30 -147 33q-76 -3 -138 -29q-26 -11 -52 -28t-47.5 -41.5t-36 -58t-19.5 -77.5h-182z" />
<glyph unicode="6" horiz-adv-x="1132" d="M93 419v100q1 21 5 46q4 21 11 49t20 61q2 4 5 11.5t13.5 30.5t31.5 68.5t57.5 126t93 202.5t138.5 298h178l-217 -474q64 16 138 16q86 0 152.5 -19t116.5 -50t84.5 -70t56.5 -79q55 -95 66 -217v-100q-11 -123 -66 -218q-22 -41 -56.5 -80.5t-84.5 -70t-116.5 -49 t-152.5 -18.5q-87 0 -153 18.5t-115.5 49t-84 70t-57.5 80.5q-54 95 -64 218zM273 419q0 -47 12.5 -83.5t33.5 -63t47.5 -45t53.5 -29.5q65 -28 147 -32q83 4 147 32q27 11 53.5 29.5t47.5 45t34 63t13 83.5v100q0 49 -13 87t-34 66.5t-47.5 47.5t-53.5 31q-64 30 -147 33 q-82 -3 -147 -33q-27 -12 -53.5 -31t-47.5 -47.5t-33.5 -66.5t-12.5 -87v-100z" />
<glyph unicode="7" horiz-adv-x="995" d="M60 1244v170h877v-170l-485 -1244h-181l485 1244h-696z" />
<glyph unicode="8" horiz-adv-x="1035" d="M116 389q0 96 41 177t109 137q-68 56 -109 137.5t-41 177.5q0 84 32 158t87 128.5t128.5 87t158.5 32.5q84 0 158 -32.5t128.5 -87t86.5 -128.5t32 -158q0 -96 -40.5 -177.5t-109.5 -137.5q69 -56 110 -137t41 -177q0 -84 -32.5 -158t-87 -129.5t-128.5 -87t-158 -31.5 t-158 31.5t-129 87t-87 129.5t-32 158zM298 389q0 -47 17.5 -87.5t48 -71t71.5 -48t87 -17.5t87.5 17.5t72 48t48 71t17.5 87.5q0 46 -17.5 86.5t-48 71t-72 48t-87.5 17.5t-87 -17.5t-71.5 -48t-48 -71t-17.5 -86.5zM298 1018q0 -46 17.5 -87t48 -71.5t71.5 -48t87 -17.5 t87 17.5t71.5 48t48 71.5t17.5 87t-17.5 87t-48 71.5t-71.5 48t-87 17.5t-87 -17.5t-71.5 -48t-48 -71.5t-17.5 -87z" />
<glyph unicode="9" horiz-adv-x="1166" d="M114 888v100q10 122 65 218q22 40 57 79t85 70.5t116 50t153 18.5q86 0 152 -18.5t115.5 -50t84 -70.5t57.5 -79q54 -96 64 -218v-100q-1 -21 -5 -46q-4 -22 -10.5 -50t-19.5 -60q-2 -4 -5 -11t-13.5 -29.5t-31.5 -67t-58 -125t-93 -202t-138 -297.5h-178l217 469 q-64 -16 -138 -16q-87 0 -153 18.5t-116 49t-85 69.5t-57 80q-55 95 -65 218zM295 888q0 -50 12.5 -88t33.5 -66t47.5 -47t53.5 -32q64 -29 148 -32q82 3 147 32q27 13 53.5 32t47.5 47t33.5 66t12.5 88v100q0 47 -12.5 83t-33.5 63.5t-47.5 45.5t-53.5 30q-65 28 -147 32 q-84 -4 -148 -32q-27 -12 -53.5 -30t-47.5 -45.5t-33.5 -63.5t-12.5 -83v-100z" />
<glyph unicode=":" horiz-adv-x="414" d="M85 276q0 25 9.5 47.5t26 39t38.5 26t48 9.5q25 0 47.5 -9.5t39 -26t26 -39t9.5 -47.5t-9.5 -47t-26 -39t-39 -26.5t-47.5 -9.5q-26 0 -48 9.5t-38.5 26.5t-26 39t-9.5 47zM90 1008q0 25 10 47.5t26 39t38 26t48 9.5q25 0 47 -9.5t39 -26t26.5 -39t9.5 -47.5t-9.5 -47 t-26.5 -39t-39 -26.5t-47 -9.5q-26 0 -48 9.5t-38 26.5t-26 39t-10 47z" />
<glyph unicode=";" horiz-adv-x="423" d="M72.5 7q2.5 8 6.5 13q5 6 11 11q47 22 74 43.5t40.5 38.5t17.5 29t4 14q-26 0 -48 9.5t-39 26t-26.5 38.5t-9.5 47t9.5 47t26.5 38.5t39 26t48 9.5q25 0 47.5 -9.5t39 -26t26 -38.5t10.5 -47q1 -59 -14 -104.5t-40 -80t-55.5 -58.5t-58 -39.5t-48.5 -23t-28 -9.5 q-10 -4 -16.5 -0.5t-9.5 9.5q-4 5 -6 15q-3 13 -0.5 21zM103 1008q0 25 9.5 47t26.5 39t39 26.5t47 9.5t47.5 -9.5t39.5 -26.5t26.5 -39t9.5 -47q0 -26 -9.5 -48t-26.5 -38.5t-39.5 -26t-47.5 -9.5t-47 9.5t-39 26t-26.5 38.5t-9.5 48z" />
<glyph unicode="&#x3c;" horiz-adv-x="1317" d="M128 499v323l1063 368v-198l-927 -330l927 -334v-196z" />
<glyph unicode="=" horiz-adv-x="1030" d="M105 353v169h809v-169h-809zM105 714v170h809v-170h-809z" />
<glyph unicode="&#x3e;" horiz-adv-x="1261" d="M111 132v196l926 334l-926 330v198l1063 -368v-323z" />
<glyph unicode="?" horiz-adv-x="917" d="M98 1212q0 13 3.5 36t15 49.5t34 54.5t61.5 50.5t96 36.5t138 14q85 0 144.5 -18.5t99 -48.5t62.5 -67.5t34.5 -74.5t14 -70t2.5 -54v-22q0 -24 -4.5 -51t-16.5 -57.5t-35 -66t-58 -78.5q-32 -39 -49 -72.5t-26 -57.5q-11 -28 -12 -51v-301h-181v301q0 43 10 80t27.5 69 t41.5 61.5t53 57.5q28 28 45 51t26 42t11.5 37t2.5 37q0 47 -15 81.5t-41.5 57.5t-61.5 34.5t-74 11.5q-72 0 -111 -13.5t-57 -29.5q-20 -19 -24 -42h-153q-2 1 -2 3q-1 3 -1 10zM379 137q0 58 38 96q41 40 97 40q52 0 95 -40q40 -38 40 -96q0 -59 -40 -99q-38 -38 -95 -38 t-97 40q-38 38 -38 97z" />
<glyph unicode="@" horiz-adv-x="1623" d="M137 651q0 145 55 271.5t150 220.5t221.5 149t270.5 55q130 0 247 -43t204 -119t138.5 -181.5t51.5 -229.5q0 -80 -20.5 -150.5t-55.5 -130t-80 -106.5t-94.5 -79t-100 -49.5t-95.5 -17.5q-48 0 -84 29t-42 83q-22 -21 -47 -41t-54 -36t-60 -25.5t-64 -9.5 q-61 0 -110 23.5t-83.5 64.5t-53.5 96t-19 119q0 92 30 182t85.5 161t133.5 114.5t175 43.5q62 0 116 -28.5t83 -94.5l24 88h159l-160 -526q-4 -12 -6 -22.5t-2 -19.5q0 -33 42 -33q37 0 75.5 28.5t69.5 75.5t51.5 111t20.5 135q0 107 -38.5 189.5t-103.5 139t-151.5 85.5 t-181.5 29q-115 0 -212.5 -43t-168 -118t-110 -177t-39.5 -220q0 -119 42 -220t114.5 -174t171 -114t212.5 -41q65 0 127 12.5t116.5 36t101.5 58t81 78.5h170q-42 -74 -107 -135t-144.5 -104t-169 -67t-179.5 -24q-150 0 -278 54.5t-222.5 149.5t-148.5 222.5t-54 274.5z M590 545q0 -64 28 -100t92 -36q54 0 98 30.5t76 77.5t49.5 103t17.5 108q0 30 -6.5 57t-19.5 48t-33 33.5t-47 12.5q-62 0 -109.5 -27.5t-79.5 -74.5t-49 -107.5t-17 -124.5z" />
<glyph unicode="A" horiz-adv-x="1165" d="M103 0v989q10 122 64 217q23 40 57.5 79t84 70.5t115.5 50t153 18.5q86 0 152.5 -18.5t116 -50t84.5 -70.5t58 -79q54 -95 64 -217v-989h-181v600h-587v-600h-181zM284 770h587v219q0 47 -12.5 83.5t-33 63.5t-47.5 45t-54 30q-64 29 -147 32q-82 -3 -146 -32 q-28 -12 -54.5 -30t-47.5 -45t-33 -63.5t-12 -83.5v-219z" />
<glyph unicode="B" horiz-adv-x="1122" d="M96 0v1401h544q84 0 157.5 -30t129 -82.5t87 -124.5t31.5 -156q0 -95 -40 -173.5t-109 -136.5q69 -55 109.5 -125.5t40.5 -166.5q0 -84 -32 -158t-88 -129.5t-130 -87t-156 -31.5h-544zM277 170h364q46 0 86.5 19.5t71 52.5t48 75t17.5 89q0 45 -16.5 83.5t-46.5 67 t-71.5 45.5t-88.5 21h-364v-453zM277 786h364q46 0 86.5 17t71 47t48 71t17.5 87t-18 87t-48.5 71.5t-71 48t-86.5 17.5h-363v-446z" />
<glyph unicode="C" horiz-adv-x="1157" d="M106 417v571q10 122 65 218q22 40 56.5 79t84.5 70.5t116 50t153 18.5q86 0 152 -18.5t115.5 -50t84.5 -70.5t58 -79q54 -96 64 -218v-31h-180v31q0 47 -12.5 84t-33.5 64t-47.5 45t-53.5 30q-65 29 -147 32q-83 -3 -147 -32q-27 -12 -53.5 -30t-47.5 -45t-33.5 -64 t-12.5 -84v-571q0 -50 12.5 -87.5t33.5 -65.5t47.5 -47t53.5 -32q64 -29 147 -32q82 3 147 32q27 13 53.5 32t47.5 47t33.5 65.5t12.5 87.5v32h180v-32q-10 -122 -64 -217q-23 -41 -58 -80t-84.5 -69.5t-115.5 -49t-152 -18.5q-87 0 -153 18.5t-116 49t-84.5 69.5t-56.5 80 q-55 95 -65 217z" />
<glyph unicode="D" horiz-adv-x="1091" d="M108 0v1401h473q86 0 152 -18.5t115.5 -49t84.5 -69.5t58 -80q54 -95 64 -217v-533q-10 -122 -64 -217q-23 -41 -58 -80t-84.5 -69.5t-115.5 -49t-152 -18.5h-473zM289 170h292q82 3 147 32q27 13 53.5 32t47.5 46.5t33.5 65.5t12.5 88v533q0 50 -12.5 88t-33.5 65.5 t-47.5 46.5t-53.5 32q-65 29 -147 33h-292v-1062z" />
<glyph unicode="E" horiz-adv-x="1061" d="M112 0v1401h928v-169h-747v-487h556v-170h-556v-405h747v-170h-928z" />
<glyph unicode="F" horiz-adv-x="1047" d="M101 0v1401h927v-169h-747v-487h556v-170h-556v-575h-180z" />
<glyph unicode="G" horiz-adv-x="1235" d="M163 417v571q10 122 64 218q23 40 57.5 79t84 70.5t115.5 50t153 18.5q86 0 152 -18.5t116 -50t85 -70.5t58 -79q54 -96 64 -218v-31h-181v31q0 47 -12.5 83t-33.5 63.5t-47.5 45.5t-53.5 30q-64 28 -147 32q-82 -4 -147 -32q-27 -12 -53.5 -30t-47.5 -45.5t-33 -63.5 t-12 -83v-571q0 -50 12 -87.5t33 -65.5t47.5 -47t53.5 -32q65 -29 147 -32q83 3 147 32q27 13 53.5 32t47.5 47t33.5 65.5t12.5 87.5v182h-378v169h559v-351q-10 -122 -64 -217q-23 -41 -58 -80t-85 -69.5t-116 -49t-152 -18.5q-87 0 -153 18.5t-115.5 49t-84 69.5t-57.5 80 q-54 95 -64 217z" />
<glyph unicode="H" horiz-adv-x="1221" d="M101 0v1401h180v-669h661v669h181v-1401h-181v563h-661v-563h-180z" />
<glyph unicode="I" horiz-adv-x="517" d="M174 0v1401h181v-1401h-181z" />
<glyph unicode="J" horiz-adv-x="600" d="M11 -17v181q83 3 147 31q27 12 53.5 30.5t47.5 45t33.5 63.5t12.5 84v983h181v-983q-10 -123 -65 -218q-22 -41 -57 -80t-85 -69.5t-116 -49t-152 -18.5z" />
<glyph unicode="K" horiz-adv-x="1139" d="M101 0v1412h183v-506l506 506h255l-706 -706l706 -706h-255l-506 506v-506h-183z" />
<glyph unicode="L" horiz-adv-x="926" d="M97 0v1425h181v-1255h642v-170h-823z" />
<glyph unicode="M" horiz-adv-x="1374" d="M75 0v1401h180l430 -928q109 234 216.5 466t213.5 462h181v-1401h-181v970l-330 -712h-200l-330 713v-971h-180z" />
<glyph unicode="N" horiz-adv-x="1343" d="M98 0v1401h262l704 -1164v1164h181v-1401h-235l-732 1163v-1163h-180z" />
<glyph unicode="O" horiz-adv-x="1161" d="M110 418v571q10 122 64 217q23 40 57.5 79t84 70.5t115.5 50t153 18.5q86 0 152 -18.5t116 -50t85 -70.5t57 -79q55 -95 65 -217v-571q-10 -123 -65 -218q-22 -41 -57 -80t-85 -69.5t-116 -49t-152 -18.5q-87 0 -153 18.5t-115.5 49t-84 69.5t-57.5 80q-54 95 -64 218z M290 418q0 -50 12.5 -88t33.5 -66t47.5 -47t53.5 -32q65 -29 147 -32q83 3 147 32q27 13 53.5 32t47.5 47t33.5 66t12.5 88v571q0 47 -12.5 83.5t-33.5 63.5t-47.5 45t-53.5 30q-64 29 -147 32q-82 -3 -147 -32q-27 -12 -53.5 -30t-47.5 -45t-33.5 -63.5t-12.5 -83.5v-571z " />
<glyph unicode="P" horiz-adv-x="1083" d="M99 0v1401h544q85 0 158.5 -30t128.5 -83t87 -124.5t32 -156.5q0 -84 -32 -155.5t-87 -124t-128.5 -82.5t-158.5 -30h-363v-615h-181zM280 784h363q46 0 87 17.5t71.5 47.5t48.5 70.5t18 87.5t-18 88t-48.5 71.5t-71.5 48t-87 17.5h-363v-448z" />
<glyph unicode="Q" horiz-adv-x="1256" d="M153 418v571q10 122 64 217q23 40 57 79t84 70.5t116 50t153 18.5q86 0 152 -18.5t116 -50t85 -70.5t57 -79q55 -95 66 -217v-571q-1 -22 -6 -48q-4 -23 -12 -52t-21 -61l121 -160l-143 -109l-85 110q-53 -49 -133 -82t-197 -33q-87 0 -153 18.5t-116 49t-84 69.5t-57 80 q-54 95 -64 218zM334 418q0 -50 12.5 -88t33 -66t47 -47t53.5 -32q65 -29 147 -32q40 1 79 10q34 8 73 25t72 48l-162 208l144 111q7 -9 19 -25q10 -14 26.5 -35.5t42.5 -53.5v548q0 47 -12.5 83.5t-33.5 63.5t-47.5 45t-53.5 30q-64 29 -147 32q-82 -3 -147 -32 q-27 -12 -53.5 -30t-47 -45t-33 -63.5t-12.5 -83.5v-571z" />
<glyph unicode="R" horiz-adv-x="1158" d="M122 0v1401h545q83 0 157 -30t129 -83t87 -124.5t32 -156.5t-32 -156t-87 -124q23 -18 44.5 -44t38 -62t26.5 -83.5t10 -106.5v-431h-182v431q-2 21 -11.5 52t-32.5 60.5t-61.5 50.5t-98.5 21h-382v-615h-182zM304 784h363q46 0 86.5 17.5t71 47.5t48 70.5t17.5 87.5 t-17.5 88t-48 71.5t-71 48t-86.5 17.5h-363v-448z" />
<glyph unicode="S" horiz-adv-x="1082" d="M98 162l120 117q22 -21 58 -44t81.5 -41t98 -29t108.5 -11t102 14t78 40t49 61t17 78q0 62 -27.5 104t-73 72.5t-103 54t-117.5 49.5t-117.5 60t-102.5 83.5t-73 121t-28 172.5q0 99 35 167.5t91.5 111t128 62t143.5 19.5q75 0 136.5 -17t106.5 -36q53 -23 95 -52l93 -64 l-101 -151l-77 50q-28 18 -63 34.5t-70.5 28.5t-67.5 19t-52 7q-43 0 -81.5 -13t-67.5 -36.5t-46.5 -56.5t-17.5 -73q0 -65 27.5 -111t72.5 -81t103 -62t118 -55t118 -61t103 -78.5t73 -108.5t28 -150v-10q-2 -94 -35.5 -163t-92 -113.5t-136.5 -66t-166 -21.5 q-124 0 -211.5 27.5t-145.5 61.5q-67 39 -111 90z" />
<glyph unicode="T" horiz-adv-x="1013" d="M35 1232v169h940v-169h-383v-1232h-181v1232h-376z" />
<glyph unicode="U" horiz-adv-x="1244" d="M147 424v977h182v-977q0 -48 12.5 -84.5t33.5 -63t47.5 -45.5t53.5 -30q64 -28 147 -31q82 3 147 31q27 11 53.5 30t47.5 45.5t33 63t12 84.5v977h181v-977q-10 -123 -64 -218q-23 -41 -58 -80t-84.5 -69.5t-115.5 -49t-152 -18.5q-110 0 -187.5 29t-130.5 74.5t-84 99 t-47.5 102t-21.5 84.5t-5 46z" />
<glyph unicode="V" horiz-adv-x="1235" d="M79 1401h190l347 -1147l348 1147h190q-48 -149 -100.5 -315.5t-109 -345t-115 -365.5t-118.5 -375h-190z" />
<glyph unicode="W" horiz-adv-x="1717" d="M79 1401h187l253 -1147l254 1147h186l255 -1147l254 1147h186l-341 -1401h-199l-247 1018l-249 -1018h-198q-49 201 -98 399.5t-93 380.5t-82.5 340.5t-67.5 280.5z" />
<glyph unicode="X" horiz-adv-x="1456" d="M63 0l545 705l-545 707h229l430 -559l431 559h228l-545 -707l545 -705h-230q-102 134 -210 274t-219 283q-111 -143 -218.5 -283t-210.5 -274h-230z" />
<glyph unicode="Y" horiz-adv-x="1200" d="M49 1412h229l316 -742l318 742h227l-453 -926v-486h-181v486z" />
<glyph unicode="Z" horiz-adv-x="1204" d="M70 0v170l809 1061h-809v169h1027v-169l-801 -1061h832v-170h-1058z" />
<glyph unicode="[" horiz-adv-x="774" d="M168 -314v2078h507v-170h-326v-1739h326v-169h-507z" />
<glyph unicode="\" horiz-adv-x="1148" d="M102 1695h180l732 -2089h-181z" />
<glyph unicode="]" horiz-adv-x="690" d="M78 -145h325v1739h-325v170h506v-2078h-506v169z" />
<glyph unicode="^" horiz-adv-x="1229" d="M121 473l328 952h322l330 -952h-199l-291 815l-293 -815h-197z" />
<glyph unicode="_" horiz-adv-x="1265" d="M114 -43h1053v-181h-1053v181z" />
<glyph unicode="`" horiz-adv-x="437" d="M85 1357h157l143 -356h-158z" />
<glyph unicode="a" horiz-adv-x="1078" d="M36 424v203q10 122 65 217q22 41 56.5 80t84.5 70t116 49.5t153 18.5q98 0 170 -23.5t124 -61.5v74h180v-1051h-180v73q-52 -37 -124 -60.5t-170 -23.5q-87 0 -153 18.5t-116 49t-84.5 69.5t-56.5 80q-55 95 -65 218zM217 424q0 -50 12.5 -88.5t33.5 -66t47.5 -47 t53.5 -31.5q64 -29 147 -33q82 4 147 33q27 12 53.5 31.5t47.5 47t33.5 66t12.5 88.5v203q0 48 -12.5 84t-33.5 63t-47.5 45t-53.5 31q-65 28 -147 31q-83 -3 -147 -31q-27 -13 -53.5 -31t-47.5 -45t-33.5 -63t-12.5 -84v-203z" />
<glyph unicode="b" horiz-adv-x="1083" d="M77 0v1446h181v-469q52 38 123.5 61.5t169.5 23.5q86 0 152.5 -18.5t116 -49.5t84.5 -70t58 -80q54 -95 64 -217v-203q-10 -123 -64 -218q-23 -41 -58 -80t-84.5 -69.5t-116 -49t-152.5 -18.5q-98 0 -169.5 23.5t-123.5 60.5v-73h-181zM258 424q0 -50 12 -88.5t33 -66 t47.5 -47t54.5 -31.5q64 -29 146 -33q82 4 146 33q27 12 53.5 31.5t47.5 47t33.5 66t12.5 88.5v203q0 48 -12.5 84t-33.5 63t-47.5 45t-53.5 31q-64 28 -146 31q-82 -3 -146 -31q-28 -13 -54.5 -31t-47.5 -45t-33 -63t-12 -84v-203z" />
<glyph unicode="c" horiz-adv-x="1056" d="M51 424v203q10 122 64 217q23 41 57.5 80t84 70t115.5 49.5t153 18.5q94 0 164 -22t121 -57t85 -79t55 -88t31 -83.5t15 -66.5h-179q-6 40 -21 70.5t-37 53t-47.5 38.5t-51.5 26q-61 24 -135 27q-82 -3 -146 -31q-28 -13 -54.5 -31t-47 -45t-33 -63t-12.5 -84v-203 q0 -50 12.5 -88.5t33 -66t47 -47t54.5 -31.5q64 -29 146 -33q74 4 136 28q26 11 51.5 27t47 40t36.5 56t21 75h179q-4 -26 -14.5 -66t-31.5 -83.5t-55 -87.5t-85 -79t-121 -57t-164 -22q-87 0 -153 18.5t-115.5 49t-84 69.5t-57.5 80q-54 95 -64 218z" />
<glyph unicode="d" horiz-adv-x="1070" d="M54 424v203q10 122 65 217q22 41 56.5 80t84.5 70t116 49.5t153 18.5q98 0 170 -23.5t124 -61.5v469h180v-1446h-180v73q-52 -37 -124 -60.5t-170 -23.5q-87 0 -153 18.5t-116 49t-84.5 69.5t-56.5 80q-55 95 -65 218zM236 424q0 -50 12.5 -88.5t33 -66t47 -47 t53.5 -31.5q64 -29 147 -33q82 4 147 33q27 12 53.5 31.5t47.5 47t33.5 66t12.5 88.5v203q0 48 -12.5 84t-33.5 63t-47.5 45t-53.5 31q-65 28 -147 31q-83 -3 -147 -31q-27 -13 -53.5 -31t-47 -45t-33 -63t-12.5 -84v-203z" />
<glyph unicode="e" horiz-adv-x="1047" d="M50 424v203q10 122 64 217q23 41 57.5 80t84 70t115.5 49.5t152 18.5q94 0 164.5 -22t121.5 -57t85 -79t55 -88t31 -83.5t14 -66.5v-170h-765v-72q0 -50 12.5 -88.5t33.5 -66t47.5 -47t53.5 -31.5q65 -29 147 -33q74 4 136 28q26 11 51.5 27t47 40t36.5 56t21 75h179 q-4 -26 -14 -66t-31 -83.5t-55 -87.5t-85 -79t-121.5 -57t-164.5 -22q-86 0 -152 18.5t-115.5 49t-84 69.5t-57.5 80q-54 95 -64 218zM233 666h582q-6 40 -21 70.5t-36.5 53t-47 38.5t-51.5 26q-61 24 -136 27q-73 -3 -134 -27q-26 -10 -51.5 -26t-47 -38.5t-37.5 -53 t-20 -70.5z" />
<glyph unicode="f" horiz-adv-x="682" d="M50 881v170h190q4 27 14 66.5t31.5 83.5t55.5 87.5t85 78.5t121 57t164 22v-180q-75 -4 -136 -28q-26 -10 -51.5 -25t-47 -37.5t-37 -53t-20.5 -71.5h183v-170h-185v-881h-181v881h-186z" />
<glyph unicode="g" horiz-adv-x="1117" d="M81 424v203q11 122 65 217q22 41 56.5 80t84.5 70t116 49.5t153 18.5q98 0 170 -23t124 -62v75h181v-1024q-11 -123 -65 -218q-22 -41 -57.5 -79.5t-85 -69.5t-115.5 -49.5t-152 -18.5q-115 0 -195.5 33t-133.5 81.5t-82.5 105.5t-42.5 105h182q26 -58 71 -89t90 -46 q53 -17 111 -19q82 3 147 33q27 12 53.5 31t47.5 47t33.5 66t12.5 87v45q-52 -36 -124 -60t-170 -24q-87 0 -153 18.5t-116 49t-84.5 69.5t-56.5 80q-54 95 -65 218zM262 424q0 -50 12.5 -88.5t33.5 -66t47.5 -47t53.5 -31.5q64 -29 147 -33q82 4 147 33q27 12 53.5 31.5 t47.5 47t33.5 66t12.5 88.5v203q0 48 -12.5 84.5t-33.5 63.5t-47.5 45t-53.5 31q-65 28 -147 32q-83 -4 -147 -32q-27 -13 -53.5 -31t-47.5 -45t-33.5 -63.5t-12.5 -84.5v-203z" />
<glyph unicode="h" horiz-adv-x="1126" d="M87 0v1446h181v-470q51 38 122.5 62t171.5 24q85 0 151.5 -18.5t116 -49.5t84.5 -70t58 -80q54 -95 64 -217v-627h-181v627q0 48 -12 84t-33 62.5t-47.5 44.5t-53.5 31q-65 28 -147 31q-83 -3 -147 -31q-27 -13 -54 -31t-47.5 -44.5t-33 -62.5t-12.5 -84v-627h-181z" />
<glyph unicode="i" horiz-adv-x="413" d="M84 1346q0 26 9.5 48t26.5 38.5t39 26t47 9.5t47.5 -9.5t39.5 -26t26.5 -38.5t9.5 -48q0 -25 -9.5 -47t-26.5 -38.5t-39.5 -26t-47.5 -9.5t-47 9.5t-39 26t-26.5 38.5t-9.5 47zM115 0v1051h181v-1051h-181z" />
<glyph unicode="j" horiz-adv-x="600" d="M40 -226q82 3 146 32q28 11 54.5 29.5t47 45t33 63.5t12.5 84v1023h181v-1023q-10 -123 -64 -218q-23 -41 -58 -79.5t-84.5 -69.5t-116 -49.5t-151.5 -18.5v181zM295 1344q0 26 9.5 48t25.5 38t38 26t48 10q25 0 47.5 -10t39 -26t26 -38t9.5 -48q0 -25 -9.5 -47 t-26 -38.5t-39 -26t-47.5 -9.5q-26 0 -48 9.5t-38 26t-25.5 38.5t-9.5 47z" />
<glyph unicode="k" horiz-adv-x="951" d="M86 0v1446h183v-690l402 306h256l-603 -506l603 -556h-256l-402 356v-356h-183z" />
<glyph unicode="l" horiz-adv-x="416" d="M120 0v1446h181v-1446h-181z" />
<glyph unicode="m" horiz-adv-x="1549" d="M170 0v1051h180v-74q12 13 26 27.5t35 27.5t50 21.5t70 8.5q96 0 160 -38.5t103 -93.5q39 55 102.5 93.5t161.5 38.5q81 0 147.5 -28.5t114 -84t73.5 -137t26 -185.5v-627h-181v627q0 48 -7.5 84t-20.5 63t-29.5 45t-33.5 31q-41 28 -92 31q-48 -3 -85 -31 q-16 -13 -31.5 -31t-27.5 -45t-19 -63t-7 -84v-627h-181v627q0 48 -7.5 84t-19 63t-27.5 45t-32 31q-37 28 -85 31q-52 -3 -91 -31q-17 -13 -34 -31t-29.5 -45t-20.5 -63t-8 -84v-627h-180z" />
<glyph unicode="n" horiz-adv-x="1122" d="M87 0v1051h181v-75q51 38 122.5 62t171.5 24q85 0 151.5 -18.5t116 -49.5t84.5 -70t58 -80q54 -95 64 -217v-627h-181v627q0 48 -12 84t-33 62.5t-47.5 44.5t-53.5 31q-65 28 -147 31q-83 -3 -147 -31q-27 -13 -54 -31t-47.5 -44.5t-33 -62.5t-12.5 -84v-627h-181z" />
<glyph unicode="o" horiz-adv-x="1047" d="M50 424v203q10 122 64 217q23 41 57.5 80t84 70t115.5 49.5t153 18.5q86 0 152 -18.5t116 -49.5t84.5 -70t56.5 -80q55 -95 65 -217v-203q-10 -123 -65 -218q-22 -41 -56.5 -80t-84.5 -69.5t-116 -49t-152 -18.5q-87 0 -153 18.5t-115.5 49t-84 69.5t-57.5 80 q-54 95 -64 218zM229 424q0 -50 12.5 -88.5t33.5 -66t47.5 -47t53.5 -31.5q65 -29 148 -33q83 4 147 33q27 12 53.5 31.5t47.5 47t33.5 66t12.5 88.5v203q0 48 -12.5 84t-33.5 63t-47.5 45t-53.5 31q-64 28 -147 31q-83 -3 -148 -31q-27 -13 -53.5 -31t-47.5 -45t-33.5 -63 t-12.5 -84v-203z" />
<glyph unicode="p" horiz-adv-x="1096" d="M80 -407v1458h181v-74q52 38 124 61.5t170 23.5q86 0 152 -18.5t115.5 -49.5t84.5 -70t58 -80q54 -95 64 -217v-203q-10 -123 -64 -218q-23 -41 -58 -80t-84.5 -69.5t-115.5 -49t-152 -18.5q-98 0 -170 23.5t-124 60.5v-480h-181zM261 424q0 -48 12.5 -84.5t33.5 -63 t47.5 -45.5t53.5 -30q64 -28 147 -31q81 3 146 31q27 11 53.5 30t47.5 45.5t33.5 63t12.5 84.5v203q0 50 -12.5 88t-33.5 66t-47.5 47.5t-53.5 31.5q-65 29 -146 33q-83 -4 -147 -33q-27 -12 -53.5 -31.5t-47.5 -47.5t-33.5 -66t-12.5 -88v-203z" />
<glyph unicode="q" horiz-adv-x="1113" d="M81 424v203q11 122 65 217q22 41 56.5 80t84.5 70t116 49.5t153 18.5q98 0 170 -23.5t124 -61.5v74h181v-1458h-181v480q-52 -37 -124 -60.5t-170 -23.5q-87 0 -153 18.5t-116 49t-84.5 69.5t-56.5 80q-54 95 -65 218zM263 424q0 -48 12.5 -84.5t33 -63t47 -45.5 t53.5 -30q64 -28 147 -31q82 3 147 31q27 11 53.5 30t47.5 45.5t33.5 63t12.5 84.5v203q0 50 -12.5 88t-33.5 66t-47.5 47.5t-53.5 31.5q-65 29 -147 33q-83 -4 -147 -33q-27 -12 -53.5 -31.5t-47 -47.5t-33 -66t-12.5 -88v-203z" />
<glyph unicode="r" horiz-adv-x="574" d="M77 0v1051h181v-74q52 38 123.5 61.5t169.5 23.5v-169q-82 -4 -146 -33q-28 -12 -54.5 -31.5t-47.5 -47.5t-33 -66t-12 -88v-627h-181z" />
<glyph unicode="s" horiz-adv-x="762" d="M28 132l109 106q20 -17 49 -33.5t61.5 -29.5t67 -21.5t68.5 -8.5q75 0 118 33.5t43 88.5q0 32 -15.5 58t-40.5 47.5t-56.5 38t-65.5 31.5q-47 20 -97 46t-90.5 65t-67 95.5t-26.5 139.5q0 75 26.5 127.5t69 85t96 47t107.5 14.5q51 0 94 -10.5t82 -28.5t77.5 -41.5 t80.5 -48.5l-91 -139q-91 58 -153 83t-90 25q-26 0 -51 -8.5t-43.5 -23.5t-29.5 -36.5t-11 -45.5q0 -39 16.5 -68.5t44 -52t62.5 -41t72 -35.5q45 -20 92.5 -46.5t86 -64t63 -88.5t24.5 -120v-5q0 -73 -26 -125.5t-70 -86.5t-103.5 -50t-126.5 -16q-78 0 -139 18 t-105.5 41.5t-72 47.5t-39.5 36z" />
<glyph unicode="t" horiz-adv-x="630" d="M41 881v170h185v395h183v-395h184v-170h-186v-881h-181v881h-185z" />
<glyph unicode="u" horiz-adv-x="1082" d="M49 424v627h180v-627q0 -48 12.5 -84.5t33.5 -63t47.5 -45.5t53.5 -30q65 -28 147 -31q83 3 147 31q27 11 53.5 30t47.5 45.5t33.5 63t12.5 84.5v627h181v-627q-10 -123 -65 -218q-22 -41 -57 -80t-85 -69.5t-116 -49t-152 -18.5q-87 0 -153 18.5t-115.5 49t-84 69.5 t-57.5 80q-54 95 -64 218z" />
<glyph unicode="v" horiz-adv-x="1139" d="M53 1062h198l330 -926l334 926h196l-367 -1062h-323z" />
<glyph unicode="w" horiz-adv-x="1652" d="M41 1062h205l240 -847l238 847h198l240 -846l238 846h207l-339 -1062h-211l-234 746l-233 -746h-210z" />
<glyph unicode="x" horiz-adv-x="1191" d="M71 0l412 533q-91 118 -155.5 200.5t-110.5 142.5t-80 103.5t-65 82.5h230l296 -381l291 381h230l-408 -529q101 -133 204 -266.5t205 -266.5h-225l-297 384q-75 -96 -150 -190.5t-149 -193.5h-228z" />
<glyph unicode="y" horiz-adv-x="1052" d="M59 1062h208l267 -772l268 772h207l-514 -1463h-211l145 401z" />
<glyph unicode="z" horiz-adv-x="1039" d="M72 0v170l621 723h-621v169h885v-169l-616 -723h616v-170h-885z" />
<glyph unicode="{" horiz-adv-x="934" d="M80 533v181q48 4 88.5 22t70.5 48t47 69.5t17 84.5v265q0 110 45.5 192.5t120.5 138.5t171.5 85t197.5 31v-170q-61 0 -124 -16t-114 -50t-83.5 -86.5t-32.5 -124.5v-265q0 -96 -40.5 -177.5t-107.5 -136.5q67 -56 107.5 -137t40.5 -177v-267q0 -71 32.5 -123.5 t83.5 -86.5t114 -50.5t124 -16.5v-169q-101 2 -197.5 30.5t-171.5 84.5t-120.5 138.5t-45.5 192.5v267q0 45 -17 84.5t-47 69.5t-70.5 48t-88.5 21z" />
<glyph unicode="|" horiz-adv-x="463" d="M141 -396v2090h181v-2090h-181z" />
<glyph unicode="}" horiz-adv-x="997" d="M118 -234q61 0 124 16.5t114 50.5t83.5 86.5t32.5 123.5v267q0 96 40.5 177t107.5 137q-67 55 -107.5 136.5t-40.5 177.5v265q0 72 -32.5 124.5t-83.5 86.5t-114 50t-124 16v170q101 -2 197.5 -31t171.5 -85t120.5 -138.5t45.5 -192.5v-265q0 -45 17 -84.5t47 -69.5 t70.5 -48t88.5 -22v-181q-48 -3 -88.5 -21t-70.5 -48t-47 -69.5t-17 -84.5v-267q0 -110 -45.5 -192.5t-120.5 -138.5t-171.5 -84.5t-197.5 -30.5v169z" />
<glyph unicode="~" horiz-adv-x="1089" d="M47 633q2 3 4 8q2 3 3.5 6.5t4.5 7.5q33 69 70 112t75.5 67.5t76 33.5t69.5 9q24 0 44 -3.5t34 -7.5q17 -5 32 -11l131 -62q26 -12 49.5 -17.5t45.5 -5.5q45 0 79 19t57 42q27 27 45 62l162 -78q-26 -67 -60 -111.5t-74 -71t-82 -38t-85 -11.5q-55 0 -97.5 14.5t-81 33 t-76.5 33t-82 14.5q-46 0 -79.5 -20t-56.5 -42q-26 -27 -44 -61z" />
<glyph unicode="&#xad;" horiz-adv-x="936" d="M76 531v170h762v-170h-762z" />
<glyph unicode="&#xde;" horiz-adv-x="1890" d="M76 353v24v550q36 69 80.5 117.5t91.5 81t92.5 52t84.5 29t68.5 11.5t44.5 2h10q88 -2 155.5 -22.5t117 -52t84.5 -71t57.5 -81.5t35 -82.5t19 -74.5t7.5 -57t1 -30v-291q0 -77 19.5 -129.5t49.5 -86.5t66 -52t68.5 -26.5t57 -10.5t30.5 -2q71 0 119.5 21.5t80.5 54 t49.5 71t26 72t10 58.5t1.5 30v754h180v-1213q0 -87 -22 -147.5t-55.5 -100t-73.5 -61.5t-76 -32.5t-62.5 -12.5t-33.5 -2q-78 0 -133.5 20.5t-92.5 44.5q-44 30 -73 66l122 119q5 -6 18 -19t34 -26.5t52 -24.5t73 -11q26 0 46 8t34.5 21t25 30t17.5 34q16 41 20 94v171 q-2 -34 -15.5 -59.5t-34 -45t-46.5 -33t-52 -22.5q-62 -21 -139 -27h-41q-105 0 -177.5 29.5t-120.5 74.5t-74.5 101t-39.5 108.5t-16 96t-3 65.5v291q0 73 -19.5 122.5t-51 81.5t-67.5 49t-69.5 25.5t-57.5 9.5t-31 1q-54 0 -96 -12t-73 -32.5t-52 -46.5t-34 -53 q-32 -63 -36 -145v-372q3 -59 25 -105q11 -19 25.5 -37.5t36 -33.5t51 -24t67.5 -9h132v-168h-243q-76 6 -137 44q-26 17 -51 42.5t-44.5 62.5t-31 87t-11.5 117z" />
<glyph unicode="&#xff;" horiz-adv-x="2194" d="M215 578q4 33 21.5 62.5t50.5 43.5q8 3 20.5 6t29.5 3q18 0 41 -4t42 -23q23 -23 26 -39t4 -20h-49q-7 24 -24.5 33.5t-38.5 9.5q-23 0 -44 -15q-13 -10 -19.5 -26.5t-9 -34t0 -34t7.5 -27.5q8 -16 22.5 -30t36.5 -16q14 -1 30.5 4t28.5 19q10 13 12 22t3 15h-59v43h103 v-138h-32l-7 31q-4 -5 -11 -12.5t-17 -13.5t-23.5 -10t-32.5 -3q-35 2 -50.5 12.5t-24.5 20.5q-23 21 -32 54.5t-5 66.5zM487 433v149h38v-28h2q2 5 4.5 10.5t13.5 11.5q5 5 11.5 7.5t15.5 1.5v-40q-13 1 -27.5 -1.5t-19.5 -27.5v-83h-38zM577 472q2 16 10.5 29.5t34.5 18.5 q11 0 21 2t17 5q10 3 10 17q0 13 -26 13q-16 0 -20.5 -8t-4.5 -17h-36q0 18 7 29t16.5 16t19.5 6.5t18 1.5q13 0 22 -1.5t14 -3.5q12 -6 19.5 -15.5t7.5 -27.5v-82q-1 -5 2 -9.5t6 -8.5v-4h-40q-5 4 -5 14q-10 -10 -20 -15.5t-27 -5.5q-48 0 -46 46zM617 470q2 -6 8 -10.5 t18 -1.5q17 3 22 13t5 23v9q-9 -6 -18.5 -6t-17.5 -2q-9 -2 -14 -9t-3 -16zM740 372v210h40v-23q8 11 14 17.5t25 8.5q16 1 26 -5.5t16 -12.5q10 -11 16 -27.5t6.5 -34.5t-5 -34.5t-15.5 -27.5q-10 -9 -19 -13t-25 -4t-23 6t-16 15v-75h-40zM780 504q0 -9 1.5 -17t3.5 -12 q6 -9 13 -13t13 -4q7 0 14 4t12 13q3 4 5 12t2 17t-2 17t-5 12q-5 9 -12 13t-14 4q-6 0 -13 -4t-13 -13q-2 -4 -3.5 -12t-1.5 -17zM904 431v203h40v-72q5 9 15.5 15.5t21.5 6.5q26 0 41.5 -12t15.5 -41v-100h-38v89q0 10 -4.5 19.5t-23.5 9.5q-18 0 -23 -8t-5 -17v-93h-40z M1058 572v11h26h27q7 1 13 1h13v-143h24v-10h-102v10h25v131h-26zM1081 645q0 12 8.5 19.5t20.5 7.5q10 0 18.5 -7.5t8.5 -19.5q0 -11 -8 -19t-19 -8q-12 0 -20.5 8t-8.5 19zM1166 573v11h24v47h24q8 0 15 1.5t15 2.5v-51h31v-11h-31v-107q0 -6 0.5 -13.5t9.5 -7.5 q12 0 15 8t6 17l11 -2q-6 -24 -21 -33.5t-39 -9.5q-27 0 -31.5 10t-4.5 25v113h-24zM1292 572v11h27h26q6 1 13 1h14v-107q0 -16 1 -26t14 -10q7 0 14.5 4.5t12.5 11t8 14t3 12.5v89h-27v11h27h26q7 1 13.5 1h13.5v-143h25v-10h-25q-7 0 -13.5 -1t-13.5 -2t-13.5 -1.5 t-12.5 -0.5v34h-1q-7 -19 -23.5 -27t-35.5 -8q-18 0 -27.5 4t-13.5 11t-4.5 18.5t-0.5 25.5v88h-27zM1512 501q0 22 8 38t19.5 26t25.5 15t24 5q13 0 25 -7t18 -20h1v120h-31v11h31q13 0 26 1.5t27 2.5v-252h21v-10h-74v21q-20 -27 -50 -27q-15 0 -28 6.5t-22.5 17.5 t-15 24.5t-5.5 27.5zM1572 455q0 -9 4.5 -15t13.5 -6q18 0 30.5 14.5t12.5 32.5v47q0 19 -12 33t-28 14q-9 0 -15 -4.5t-6 -13.5v-102zM1707 504q0 19 8 34.5t20.5 25.5t29 15.5t32.5 5.5q29 0 52 -18.5t23 -47.5q0 -7 -6.5 -7.5t-11.5 -0.5h-84v-49q0 -28 31 -28 q23 0 40 11.5t22 33.5l9 -2q-8 -27 -27.5 -39.5t-46.5 -12.5q-36 0 -63.5 19.5t-27.5 59.5zM1770 521h50v37q0 17 -27 17q-23 0 -23 -18v-36zM1887 457q0 12 9.5 21.5t22.5 9.5q12 0 21.5 -9.5t9.5 -21.5q0 -14 -9.5 -23t-21.5 -9q-13 0 -22.5 9.5t-9.5 22.5z" />
<glyph unicode="&#x152;" d="M-705 1583v170h180q21 -3 39 -12q16 -8 28.5 -24t12.5 -45v-146h332v-170h-502v227h-90z" />
<glyph unicode="&#x153;" d="M-762 2112v169h180q22 -2 40 -11q15 -8 27.5 -24.5t12.5 -44.5v-147h332v-169h-501v227h-91z" />
<glyph unicode="&#x178;" d="M-822 1877v180q2 21 12 39q8 16 24 28.5t46 12.5h398v-170h-310v-90h-170z" />
<glyph unicode="&#x2c6;" d="M-1075 1322q0 62 11.5 127.5t41 120.5t81 93.5t131.5 45.5l97 -100l97 100q57 0 98 -19.5t70 -50.5t47.5 -70t28.5 -77h259v-170h-408q0 68 -8 106t-17 57q-11 21 -25 28l-142 -142l-142 142q-14 -7 -25 -28q-9 -19 -17 -57t-8 -106h-170z" />
<glyph unicode="&#x2dc;" d="M-1000 1511v179h169v-90h455v-169h-544q-29 0 -45 11.5t-24 27.5q-9 18 -11 41z" />
<glyph unicode="&#x2000;" horiz-adv-x="1140" />
<glyph unicode="&#x2001;" horiz-adv-x="2281" />
<glyph unicode="&#x2002;" horiz-adv-x="1140" />
<glyph unicode="&#x2003;" horiz-adv-x="2281" />
<glyph unicode="&#x2004;" horiz-adv-x="760" />
<glyph unicode="&#x2005;" horiz-adv-x="570" />
<glyph unicode="&#x2006;" horiz-adv-x="380" />
<glyph unicode="&#x2007;" horiz-adv-x="380" />
<glyph unicode="&#x2008;" horiz-adv-x="285" />
<glyph unicode="&#x2009;" horiz-adv-x="456" />
<glyph unicode="&#x200a;" horiz-adv-x="126" />
<glyph unicode="&#x2010;" horiz-adv-x="936" d="M76 531v170h762v-170h-762z" />
<glyph unicode="&#x2011;" horiz-adv-x="936" d="M76 531v170h762v-170h-762z" />
<glyph unicode="&#x2012;" horiz-adv-x="936" d="M76 531v170h762v-170h-762z" />
<glyph unicode="&#x2013;" horiz-adv-x="968" d="M76 512v169h809v-169h-809z" />
<glyph unicode="&#x2014;" horiz-adv-x="965" d="M76 512v169h809v-169h-809z" />
<glyph unicode="&#x2018;" horiz-adv-x="455" d="M80 1040q-2 58 14 104t40.5 80.5t55 58t58.5 39.5t49 23.5t27 9.5q10 2 16.5 -1t9.5 -8q5 -6 6 -16q4 -21 -6 -34q-4 -6 -11 -10q-46 -23 -73.5 -44.5t-41 -38.5t-17.5 -28.5t-4 -13.5q25 0 47.5 -10t39.5 -26t27 -38.5t10 -46.5q0 -25 -10 -47t-27 -38.5t-39.5 -26 t-47.5 -9.5q-26 0 -48 9.5t-38 26t-26 38.5t-11 47z" />
<glyph unicode="&#x2019;" horiz-adv-x="446" d="M103 982q2 8 7 14q4 5 11 10q46 22 73 43.5t41 38.5t18 29t4 14q-26 0 -48.5 9.5t-39 26t-26.5 38.5t-10 47t10 47t26.5 38.5t39 26t48.5 9.5q24 0 47 -9.5t39 -26t26 -38.5t11 -47q1 -59 -14.5 -104.5t-40 -80t-55 -58.5t-58.5 -39.5t-49 -23t-27 -9.5q-11 -4 -17 -0.5 t-9 9.5q-5 5 -6 16q-3 12 -1 20z" />
<glyph unicode="&#x201a;" d="M-1248 1349v170h507v108h169v-278h-676z" />
<glyph unicode="&#x201e;" d="M-1083 1431v169h304v126h170v-126h101v126h169v-295h-744z" />
<glyph unicode="&#x2022;" horiz-adv-x="793" d="M106 440q0 58 23.5 111.5t63.5 92.5t92.5 62t110.5 23t111 -23t92 -62t62.5 -92.5t23.5 -111.5t-23.5 -110.5t-62.5 -92.5t-92 -63.5t-111 -23.5q-59 0 -111.5 23.5t-92 62.5t-63 91.5t-23.5 112.5z" />
<glyph unicode="&#x2026;" horiz-adv-x="1219" d="M106 55q0 26 19.5 44.5t44.5 18.5t43.5 -18.5t18.5 -44.5q0 -22 -18.5 -41t-43.5 -19t-44.5 19t-19.5 41zM548 55q0 26 18.5 44.5t44.5 18.5q23 0 42.5 -18.5t19.5 -44.5q0 -22 -18 -41t-44 -19t-44.5 19t-18.5 41zM988 55q0 26 19 44.5t44 18.5q26 0 44 -18.5t18 -44.5 q0 -22 -18 -41t-44 -19q-25 0 -44 19t-19 41z" />
<glyph unicode="&#x202f;" horiz-adv-x="456" />
<glyph unicode="&#x2039;" d="M-410 1357v344h169v-344h-169z" />
<glyph unicode="&#x203a;" d="M-672 1887v344h169v-344h-169z" />
<glyph unicode="&#x205f;" horiz-adv-x="570" />
<glyph unicode="&#x20ac;" horiz-adv-x="1254" d="M94 739v12q0 19 3.5 60t18.5 93.5t45 108.5t82.5 102t131.5 75.5t193 29.5h11q37 0 75.5 -5t82.5 -17q47 7 91 26q38 16 77.5 47.5t65.5 84.5q32 -32 60 -59q11 -11 22 -22.5t21 -21t17 -15.5t10 -9q0 -9 -18.5 -31t-44.5 -46.5t-53 -47.5t-45 -32q45 -53 74.5 -130.5 t29.5 -190.5v-751h-182v336q-12 36 -33 66.5t-54 50.5q-31 19 -67 30t-79 11q-64 0 -109 -24v194q48 14 109 14q128 0 233 -62v123q-8 77 -42 139q-14 26 -35.5 51t-52 44.5t-71.5 31.5t-93 12q-82 -6 -147 -36q-27 -14 -53.5 -33.5t-47.5 -49t-33 -69t-12 -90.5h-181z" />
<glyph unicode="&#x2122;" d="M-796 1521q0 44 16.5 82.5t45.5 67.5t67.5 45t82.5 16t82.5 -16t67 -45t45.5 -67.5t17 -82.5t-17 -82.5t-45.5 -67.5t-67 -45t-82.5 -16t-82.5 16t-67.5 45t-45.5 67.5t-16.5 82.5zM-654 1521q0 -29 20 -49.5t50 -20.5q29 0 50 20.5t21 49.5t-21 49.5t-50 20.5 q-30 0 -50 -20.5t-20 -49.5z" />
<glyph unicode="&#x25fc;" horiz-adv-x="1062" d="M0 0v1062h1062v-1062h-1062z" />
</font>
</defs>
</svg>
